<?xml version="1.0" encoding="UTF-8"?>
<svg version="1.1" xmlns="http://www.w3.org/2000/svg" width="512" height="512">
<path d="M0 0 C3.95960816 0.63589734 6.65858974 2.56012232 9.859375 4.87890625 C11.3438323 5.89501348 12.82959289 6.90921839 14.31640625 7.921875 C15.52031006 8.75404541 15.52031006 8.75404541 16.74853516 9.60302734 C21.60963163 12.90951844 26.58662624 16.03654215 31.546875 19.19140625 C33.70724441 20.57258331 35.86740041 21.95409423 38.02734375 23.3359375 C44.69578814 27.59585505 51.37175165 31.84389385 58.04956055 36.08911133 C66.04582777 41.1743779 74.02803042 46.28147714 82.00561523 51.39599609 C87.17782791 54.71024512 92.35629576 58.0137177 97.55078125 61.29296875 C98.53949219 61.91816406 99.52820313 62.54335937 100.546875 63.1875 C102.39795311 64.35699908 104.25069127 65.52387687 106.10546875 66.6875 C110.10263721 69.21494036 114.05957947 71.79178429 117.91796875 74.52734375 C118.87981079 75.20676025 118.87981079 75.20676025 119.86108398 75.89990234 C122.95695496 78.95592098 122.52006966 83.29241979 122.63378906 87.41772461 C122.67236526 88.64961517 122.71094147 89.88150574 122.75068665 91.15072632 C122.78021644 92.14123049 122.78021644 92.14123049 122.81034279 93.15174484 C123.75246172 123.2700355 125.30393631 152.63998719 132.796875 181.94140625 C133.07946167 183.06400848 133.36204834 184.18661072 133.65319824 185.3432312 C134.46020824 188.49093707 135.30177161 191.62592297 136.16796875 194.7578125 C136.53682442 196.12481796 136.53682442 196.12481796 136.91313171 197.5194397 C138.45053384 202.72966914 140.07060288 205.80499986 144.359375 209.37890625 C145.30554688 210.26449219 146.25171875 211.15007812 147.2265625 212.0625 C148.22808345 212.98165043 149.23069789 213.89961075 150.234375 214.81640625 C150.72550781 215.26822266 151.21664063 215.72003906 151.72265625 216.18554688 C152.21894531 216.63994141 152.71523438 217.09433594 153.2265625 217.5625 C153.6993545 218.00677432 154.17214649 218.45104864 154.65926552 218.90878582 C156.31089424 220.41253365 156.31089424 220.41253365 158.16695213 221.51172352 C161.33605503 223.64360927 163.09239991 225.26668241 164.00139236 229.05356407 C164.24422989 232.49139824 164.25911935 235.86712355 164.20166016 239.31323242 C164.20750122 240.61626816 164.21334229 241.91930389 164.21936035 243.26182556 C164.23414566 246.82413329 164.20542285 250.38488147 164.16792727 253.94697356 C164.13525171 257.67713044 164.14001926 261.40725383 164.13998413 265.13752747 C164.13442526 271.39786018 164.10214305 277.65759609 164.05224609 283.91772461 C163.99471521 291.15697431 163.97193056 298.39565555 163.9693619 305.63512057 C163.9664392 313.34481741 163.94063561 321.05430491 163.90679502 328.76392198 C163.89843301 330.98556882 163.89408841 333.20719473 163.890522 335.42885399 C163.88234174 339.56374783 163.84825452 343.69802941 163.81103516 347.83276367 C163.81082367 349.06555054 163.81061218 350.2983374 163.81039429 351.56848145 C163.79615417 352.69143112 163.78191406 353.8143808 163.76724243 354.97135925 C163.76091608 355.94896304 163.75458973 356.92656683 163.74807167 357.93379498 C163.359375 360.37890625 163.359375 360.37890625 162.35152853 362.00813049 C159.18965162 364.18377818 155.80164385 363.78883699 152.09622192 363.75642967 C151.2393421 363.76078999 150.38246227 363.76515032 149.49961638 363.76964277 C146.60261434 363.78066896 143.70608131 363.77014287 140.80908203 363.75985718 C138.72147946 363.76331083 136.63387872 363.76807342 134.54628181 363.77403891 C128.78960618 363.78661873 123.0330788 363.78034691 117.27640247 363.77108026 C111.07592044 363.76431857 104.87546468 363.77475663 98.67498779 363.78302002 C87.22359731 363.79561681 75.77227328 363.79448605 64.3208831 363.78628561 C53.74307142 363.77874768 43.16527718 363.77676476 32.58746338 363.78035355 C31.8866135 363.7805827 31.18576362 363.78081186 30.46367587 363.78104796 C27.61890819 363.78198193 24.77414052 363.78293712 21.92937285 363.78392725 C-4.77276428 363.79311032 -31.47487113 363.78477424 -58.17700359 363.76863656 C-81.91554467 363.75439907 -105.65403747 363.75567292 -129.39257812 363.77001953 C-156.04495803 363.78607319 -182.69731114 363.79245914 -209.34969521 363.78318274 C-212.18936792 363.78222055 -215.02904065 363.78128203 -217.86871338 363.78035355 C-218.56794575 363.78011631 -219.26717813 363.77987908 -219.98759936 363.77963466 C-230.56040479 363.77621801 -241.1331909 363.78022094 -251.70599365 363.78779221 C-263.72421127 363.79635548 -275.74235939 363.79396667 -287.76057482 363.77794997 C-293.89755778 363.77004195 -300.03444253 363.76701858 -306.17142487 363.77689743 C-311.78201344 363.78579263 -317.39241215 363.78099748 -323.00298333 363.76496477 C-325.03994376 363.7615949 -327.07692001 363.76336002 -329.11387038 363.77059214 C-331.86863694 363.77962763 -334.62274084 363.77044741 -337.37747192 363.75642967 C-338.18053213 363.76345317 -338.98359234 363.77047667 -339.81098771 363.777713 C-345.14021522 363.72297975 -345.14021522 363.72297975 -347.63347685 362.00865424 C-349.10857986 359.62167059 -349.01835617 357.7451387 -349.02157593 354.95117188 C-349.03426514 353.26024414 -349.03426514 353.26024414 -349.04721069 351.53515625 C-349.041138 350.29765625 -349.03506531 349.06015625 -349.02880859 347.78515625 C-349.03406555 346.48255859 -349.03932251 345.17996094 -349.04473877 343.83789062 C-349.05842851 340.26351572 -349.05310704 336.68940026 -349.04360151 333.11502075 C-349.03601343 329.37680352 -349.04304815 325.63860871 -349.04776001 321.90039062 C-349.05322006 315.6223552 -349.04601946 309.34442561 -349.03173828 303.06640625 C-349.01541122 295.80509714 -349.02069955 288.54404072 -349.0372175 281.28273773 C-349.05082531 275.05166204 -349.0527555 268.82066247 -349.04490149 262.58957672 C-349.04022106 258.86656044 -349.03961017 255.14366298 -349.04951096 251.4206543 C-349.05977481 247.27116903 -349.04555479 243.12212034 -349.02880859 238.97265625 C-349.03488129 237.73515625 -349.04095398 236.49765625 -349.04721069 235.22265625 C-349.03875122 234.09537109 -349.03029175 232.96808594 -349.02157593 231.80664062 C-349.02044485 230.82514038 -349.01931377 229.84364014 -349.01814842 228.83239746 C-348.640625 226.37890625 -348.640625 226.37890625 -347.32653236 224.5579834 C-344.53610969 222.60643868 -341.77786272 223.09989971 -338.453125 223.19140625 C-336.54466797 223.23201172 -336.54466797 223.23201172 -334.59765625 223.2734375 C-333.62183594 223.30824219 -332.64601563 223.34304688 -331.640625 223.37890625 C-331.61935547 222.47011719 -331.61935547 222.47011719 -331.59765625 221.54296875 C-331.02143823 211.42021973 -327.14173035 204.02496317 -319.83984375 197.04296875 C-317.51973349 195.28743239 -315.42548849 194.37436508 -312.703125 193.37890625 C-309.60385221 192.17176419 -309.60385221 192.17176419 -307.60546875 189.64453125 C-306.83357751 186.29750704 -307.09122367 184.25828338 -308.921875 181.328125 C-311.27342855 178.57573846 -313.83296023 176.12352545 -316.4921875 173.671875 C-323.47564611 167.10373221 -327.30724344 159.80147633 -327.7734375 150.12109375 C-327.48287675 144.12186876 -326.10812042 139.20336001 -322.328125 134.50390625 C-313.97532222 127.89936452 -313.97532222 127.89936452 -308.640625 127.37890625 C-307.609375 127.27578125 -306.578125 127.17265625 -305.515625 127.06640625 C-297.35829575 127.72425538 -290.46267421 130.68132855 -284.453125 136.23046875 C-282.32634144 138.75144065 -280.94417735 141.4109646 -279.390625 144.31640625 C-277.40538563 147.59182407 -276.41700382 149.07930779 -272.81640625 150.46875 C-269.27124655 150.7934635 -266.98409783 150.62433872 -263.640625 149.37890625 C-261.11004419 146.87445881 -259.38183272 144.30226215 -257.50390625 141.28125 C-253.45374375 134.97250632 -247.80766333 130.60315952 -240.640625 128.37890625 C-232.05187212 126.54663897 -225.74333267 127.82439015 -218.328125 132.44140625 C-213.62861255 137.57808265 -211.46898281 143.42866588 -211.140625 150.37890625 C-211.55522529 159.19607234 -215.6941748 166.99521706 -221.640625 173.37890625 C-222.50171875 173.98605469 -223.3628125 174.59320313 -224.25 175.21875 C-228.61067416 178.52621049 -231.2422591 180.80300973 -232.08789062 186.27099609 C-232.51941364 193.65156521 -232.18787139 201.01212799 -231.640625 208.37890625 C-230.92269775 208.16524414 -230.20477051 207.95158203 -229.46508789 207.73144531 C-224.25752005 206.2359655 -219.54281522 204.98337522 -214.078125 205.12890625 C-213.08683594 205.144375 -212.09554687 205.15984375 -211.07421875 205.17578125 C-208.640625 205.37890625 -208.640625 205.37890625 -206.640625 206.37890625 C-206.66157227 205.37102051 -206.68251953 204.36313477 -206.70410156 203.32470703 C-206.77717253 199.54148893 -206.82266509 195.75833157 -206.86035156 191.97460938 C-206.88031579 190.34527047 -206.9074973 188.7160018 -206.94238281 187.08691406 C-207.16762685 176.28844982 -206.6344022 168.13760613 -201.015625 158.62890625 C-194.77769164 152.71928517 -187.90958653 149.24089565 -179.328125 149.19140625 C-178.21824219 149.17722656 -177.10835937 149.16304687 -175.96484375 149.1484375 C-172.5444414 149.38557468 -169.83089057 150.15782124 -166.640625 151.37890625 C-166.67542969 150.62867188 -166.71023437 149.8784375 -166.74609375 149.10546875 C-167.00547434 139.29841202 -165.83588314 131.00753974 -159.51953125 123.203125 C-153.7271124 117.57930047 -146.99943925 114.28439058 -138.953125 114.12890625 C-129.97751803 114.28683482 -124.11068691 117.01553617 -117.58984375 123.18359375 C-112.96548033 128.39179463 -110.55533052 134.45665812 -110.43530273 141.40112305 C-110.41535751 142.4219548 -110.39541229 143.44278656 -110.37486267 144.49455261 C-110.34979393 146.14467094 -110.34979393 146.14467094 -110.32421875 147.828125 C-110.30343765 148.95587845 -110.28265656 150.0836319 -110.26124573 151.24555969 C-110.19579653 154.85244585 -110.13688656 158.45940554 -110.078125 162.06640625 C-110.03493539 164.50977327 -109.99132096 166.95313281 -109.94726562 169.39648438 C-109.84011984 175.39054699 -109.73834471 181.38468296 -109.640625 187.37890625 C-109.44683762 186.7967485 -109.25305023 186.21459076 -109.0533905 185.61479187 C-107.03614247 179.56061162 -105.00646119 173.51070426 -102.96948242 167.46313477 C-102.2107433 165.20509468 -101.45518957 162.94598165 -100.70288086 160.68579102 C-99.62146707 157.43869819 -98.52868615 154.19562625 -97.43359375 150.953125 C-97.09909714 149.94054123 -96.76460052 148.92795746 -96.41996765 147.88468933 C-96.09986221 146.94394058 -95.77975677 146.00319183 -95.44995117 145.03393555 C-95.17237473 144.20564743 -94.89479828 143.37735931 -94.60881042 142.52397156 C-92.219264 137.22980682 -87.62559068 135.92358532 -82.5 133.91015625 C-81.6995929 133.58857544 -80.89918579 133.26699463 -80.07452393 132.93566895 C-77.5160569 131.90949287 -74.95352311 130.89395829 -72.390625 129.87890625 C-69.84300034 128.86149659 -67.29623931 127.84194866 -64.74957275 126.82214355 C-63.16647436 126.18912623 -61.5826508 125.55791838 -59.99798584 124.92883301 C-59.26742981 124.6384314 -58.53687378 124.34802979 -57.78417969 124.04882812 C-57.08659546 123.77159912 -56.38901123 123.49437012 -55.67028809 123.20874023 C-53.68950742 122.39889198 -51.73938262 121.53587446 -49.78613281 120.66210938 C-46.640625 119.37890625 -46.640625 119.37890625 -43.640625 119.37890625 C-43.29837891 117.67347656 -43.29837891 117.67347656 -42.94921875 115.93359375 C-41.43153794 109.11804562 -39.39575284 102.44725795 -37.38208008 95.765625 C-36.69922917 93.49092856 -36.03026169 91.21241602 -35.36132812 88.93359375 C-34.92532631 87.48021435 -34.48850664 86.02707998 -34.05078125 84.57421875 C-33.75531151 83.55704269 -33.75531151 83.55704269 -33.45387268 82.51931763 C-31.57581546 76.39184626 -31.57581546 76.39184626 -28.640625 74.37890625 C-25.453125 74.19140625 -25.453125 74.19140625 -22.640625 74.37890625 C-22.43566406 73.54746094 -22.23070312 72.71601563 -22.01953125 71.859375 C-21.75011719 70.77269531 -21.48070312 69.68601562 -21.203125 68.56640625 C-20.93628906 67.48746094 -20.66945313 66.40851563 -20.39453125 65.296875 C-19.87985088 63.30482195 -19.29125325 61.33079101 -18.640625 59.37890625 C-19.28 59.09015625 -19.919375 58.80140625 -20.578125 58.50390625 C-22.640625 57.37890625 -22.640625 57.37890625 -23.640625 55.37890625 C-23.20259256 48.66542224 -21.76150542 42.6161995 -19.8046875 36.19921875 C-19.38465958 34.79734818 -19.38465958 34.79734818 -18.95614624 33.36715698 C-18.36661871 31.40797325 -17.77310606 29.44998461 -17.17578125 27.49316406 C-16.26300381 24.49529738 -15.36912256 21.49222102 -14.4765625 18.48828125 C-13.8995641 16.57908624 -13.32147738 14.67021973 -12.7421875 12.76171875 C-12.47644928 11.86486359 -12.21071106 10.96800842 -11.93692017 10.04397583 C-11.55169693 8.79655106 -11.55169693 8.79655106 -11.15869141 7.52392578 C-10.93742584 6.79384308 -10.71616028 6.06376038 -10.4881897 5.31155396 C-8.23420229 0.17193027 -5.18184683 -0.1922298 0 0 Z " fill="#010100" transform="translate(348.640625,148.62109375)"/>
<path d="M0 0 C2.38468563 0.81464309 4.77017645 1.62693109 7.15625 2.4375 C11.90964559 4.07134097 16.64317657 5.75273543 21.36328125 7.48046875 C26.49964178 9.35566899 31.66163345 11.14525071 36.83908081 12.90356445 C38.87140957 13.60852316 40.89540926 14.33823711 42.90774536 15.09838867 C67.74859678 24.44737758 89.03030412 21.94185608 116.9375 22.5 C116.9375 58.8 116.9375 95.1 116.9375 132.5 C-42.1225 132.5 -201.1825 132.5 -365.0625 132.5 C-365.0625 96.2 -365.0625 59.9 -365.0625 22.5 C-337.1875 22.5 -337.1875 22.5 -328.57080078 22.5625 C-312.21471987 22.51163092 -298.34531868 20.07527831 -282.98374939 14.50692749 C-278.01805516 12.79529888 -272.95119308 11.46511273 -267.875 10.125 C-266.94427673 9.8759491 -266.01355347 9.62689819 -265.05462646 9.37030029 C-263.45237624 8.94233835 -261.84903935 8.51842362 -260.24462891 8.09863281 C-258.33579882 7.57497524 -256.45179022 6.96249551 -254.57421875 6.3359375 C-244.24049222 3.87607379 -236.67056593 6.71584411 -227.0625 10.75 C-225.8559375 11.24113281 -224.649375 11.73226563 -223.40625 12.23828125 C-213.75420123 16.17254026 -213.75420123 16.17254026 -210.41796875 17.75195312 C-196.94379449 23.9230814 -182.06957509 19.2767943 -168.21801758 16.49072266 C-149.11156082 12.68238483 -132.8474595 13.48297868 -113.75 17 C-88.12290331 21.67413865 -72.84331665 18.44751708 -49.1875 7.9375 C-47.42737706 7.16144285 -45.66696198 6.38604793 -43.90625 5.61132812 C-40.67931397 4.19087844 -37.45431202 2.76620129 -34.23095703 1.33764648 C-33.17138542 0.87302505 -33.17138542 0.87302505 -32.09040833 0.39901733 C-30.77542961 -0.18394228 -29.46636411 -0.78050239 -28.1648407 -1.39291382 C-18.56257695 -5.80982258 -9.48888639 -3.50852172 0 0 Z " fill="#FED166" transform="translate(380.0625,364.5)"/>
<path d="M0 0 C14.3001571 11.27703627 25.72950351 25.95738499 30.89990234 43.59423828 C32.72702607 49.71008975 34.46439823 54.87504935 39.76171875 58.828125 C43.68102832 60.56652844 47.5635399 60.44061951 51.80078125 60.55859375 C59.36852828 61.32760269 66.01470462 65.21602553 71.18359375 70.71484375 C75.48273936 76.18839011 77.96494418 82.08029567 79.18359375 88.90234375 C81.08431641 88.90621094 81.08431641 88.90621094 83.0234375 88.91015625 C99.68040732 89.19110524 99.68040732 89.19110524 105.58203125 94.1875 C111.05804999 100.05084689 111.99298876 104.74493201 111.78125 112.7265625 C110.83123172 117.77469883 108.10962015 120.74020484 104.18359375 123.90234375 C101.12535652 125.43146237 97.9535086 124.96756048 94.60375977 124.90136719 C92.98149849 124.87859667 91.35922928 124.85638621 89.73695374 124.83465576 C88.87411333 124.8218734 88.01127293 124.80909103 87.12228584 124.79592133 C81.58677113 124.72540216 76.05073909 124.71910683 70.51484776 124.70206833 C65.65476053 124.68345895 60.7970284 124.64177376 55.93774414 124.54931641 C51.23368855 124.46108013 46.53309203 124.43720421 41.82829094 124.45569611 C40.04250731 124.45141719 38.2566163 124.42434763 36.47155952 124.37322235 C25.7740087 123.8705495 25.7740087 123.8705495 16.71652222 128.74475098 C13.85820732 131.90686784 11.56204245 135.37265905 9.18359375 138.90234375 C-5.86062985 154.73648194 -27.40540184 164.32633826 -49.1015625 165.21875 C-73.92380006 165.83834329 -95.33656249 161.1007437 -114.81640625 144.90234375 C-115.75097656 144.13019531 -116.68554688 143.35804688 -117.6484375 142.5625 C-133.96598352 128.43253197 -144.70528853 108.27220671 -147.81640625 86.90234375 C-149.47353356 59.84659751 -145.45566594 36.23744832 -127.81640625 14.90234375 C-127.12933594 14.05285156 -126.44226563 13.20335938 -125.734375 12.328125 C-94.45983313 -24.46876841 -37.92016293 -28.24289528 0 0 Z " fill="#010000" transform="translate(147.81640625,18.09765625)"/>
<path d="M0 0 C0.66 0 1.32 0 2 0 C3.51922483 1.7996497 4.92057395 3.60480338 6.3125 5.5 C10.24630088 10.73899828 14.28621129 15.86910187 18.4375 20.9375 C22.96842204 26.48065634 27.48295487 32.03408607 31.81811523 37.73266602 C34.2204387 40.86344443 36.70215514 43.7691791 39.46875 46.5859375 C46.45242889 53.91703284 49.84340346 59.69398088 50.7109375 69.875 C50.81973236 70.91240326 50.92852722 71.94980652 51.0406189 73.01864624 C51.38384024 76.34388438 51.6922137 79.67131466 52 83 C52.22317919 85.21069351 52.44876087 87.42114582 52.67675781 89.63134766 C53.35680587 96.29306906 53.99424987 102.95845637 54.625 109.625 C54.94968344 113.03997401 55.27540746 116.45483838 55.60360718 119.86947632 C55.80499981 121.96613337 56.00436181 124.06298685 56.20132446 126.1600647 C56.55624493 129.86518748 56.91351108 133.51549845 57.56787109 137.18115234 C58.54556755 143.55882653 57.93392994 149.36913933 56.7578125 155.67578125 C56.56516312 156.71353951 56.56516312 156.71353951 56.36862183 157.77226257 C56.09809133 159.21904153 55.82397621 160.66515453 55.54638672 162.1105957 C55.12308345 164.32251469 54.71515518 166.53690271 54.30859375 168.75195312 C54.04257633 170.16423415 53.77568051 171.57635006 53.5078125 172.98828125 C53.26691895 174.26227783 53.02602539 175.53627441 52.77783203 176.84887695 C52 180 52 180 50 183 C48.80008423 182.59104492 48.80008423 182.59104492 47.57592773 182.17382812 C44.53424569 181.14935371 41.48657861 180.14577423 38.43383789 179.15478516 C37.12716875 178.72620663 35.82298187 178.2899659 34.52172852 177.84521484 C22.11196719 173.61428733 9.59057967 171.30141248 -2.8125 177.0625 C-3.59874756 177.40031494 -4.38499512 177.73812988 -5.19506836 178.08618164 C-8.14295796 179.36291714 -11.06977709 180.6832106 -14 182 C-16.9092434 183.2836979 -19.8219419 184.55949591 -22.734375 185.8359375 C-27.3812287 187.87476485 -32.02580194 189.91830254 -36.66137695 191.98266602 C-37.75056427 192.46740891 -37.75056427 192.46740891 -38.86175537 192.96194458 C-40.23742162 193.57479922 -41.61257044 194.18881708 -42.98712158 194.8041687 C-54.81363859 200.07192304 -65.17751963 197.56472564 -77.44921875 195.08984375 C-82.88302671 193.99963029 -88.33579828 193.09517646 -93.8125 192.25 C-94.63685547 192.12262451 -95.46121094 191.99524902 -96.31054688 191.86401367 C-98.20660347 191.5732062 -100.10323352 191.28614077 -102 191 C-101.29053367 185.1748117 -99.41037193 179.83360025 -97.54296875 174.30078125 C-97.19873367 173.26994919 -96.8544986 172.23911713 -96.49983215 171.17704773 C-95.77144376 168.99859287 -95.04090063 166.82085744 -94.30834961 164.64379883 C-93.19770556 161.34283215 -92.09336757 158.03981145 -90.99023438 154.73632812 C-90.27901682 152.61185493 -89.56743963 150.4875021 -88.85546875 148.36328125 C-88.52927048 147.38893631 -88.2030722 146.41459137 -87.86698914 145.41072083 C-87.23477321 143.53324602 -86.5928213 141.65901723 -85.94044495 139.78845215 C-85.29493321 137.87448728 -84.70128198 135.94248411 -84.15220642 133.99865723 C-81.66583489 125.80645543 -81.66583489 125.80645543 -77.35229492 123.39013672 C-75.91187683 122.77864837 -74.45277559 122.20981471 -72.98046875 121.6796875 C-72.20367264 121.36468292 -71.42687653 121.04967834 -70.62654114 120.72512817 C-68.16008498 119.73666487 -65.67588369 118.806664 -63.1875 117.875 C-61.52919017 117.21446342 -59.87226922 116.55042868 -58.21679688 115.8828125 C-44.49646278 110.44775246 -44.49646278 110.44775246 -38 110 C-35.48046875 111.5546875 -35.48046875 111.5546875 -33.1875 113.875 C-32.34574219 114.69871094 -31.50398438 115.52242188 -30.63671875 116.37109375 C-29.76660156 117.23863281 -28.89648438 118.10617187 -28 119 C-26.17573111 120.65587484 -24.34272131 122.30218455 -22.5 123.9375 C-20.28640075 125.92343477 -18.10275392 127.89724608 -16 130 C-16.54347826 136.08695652 -16.54347826 136.08695652 -18 139 C-18.38750052 142.56500476 -18.39435894 144.38480006 -16.4375 147.4375 C-13.98758967 149.27314331 -13.98758967 149.27314331 -10.5 149.3125 C-7.01051174 148.38626874 -7.01051174 148.38626874 -5.765625 146.1953125 C-4.70231786 143.83149892 -3.84033949 141.45131288 -3 139 C-2.68933594 138.29746094 -2.37867188 137.59492188 -2.05859375 136.87109375 C-1.77113281 136.21238281 -1.48367188 135.55367187 -1.1875 134.875 C-0.93355469 134.29492188 -0.67960937 133.71484375 -0.41796875 133.1171875 C0.26729063 129.64606054 -0.03556919 127.4330858 -1 124 C-3.22865063 121.16353556 -5.84668207 118.86263981 -8.5625 116.5 C-9.25408203 115.87480469 -9.94566406 115.24960937 -10.65820312 114.60546875 C-12.75554106 112.71727822 -14.87471527 110.85663782 -17 109 C-17.71655762 108.36578125 -18.43311523 107.7315625 -19.17138672 107.078125 C-22.36952748 104.25444774 -25.56000979 101.52807679 -29 99 C-27.50430943 89.83437604 -24.60874622 81.15141363 -21.65991211 72.36889648 C-21.02704 70.47554013 -20.41368833 68.57569449 -19.80078125 66.67578125 C-19.43122314 65.56114502 -19.06166504 64.44650879 -18.6809082 63.2980957 C-17.89913738 59.5114546 -18.13113176 56.75441487 -19 53 C-20.91738855 51.03712176 -20.91738855 51.03712176 -23 50 C-22.52229477 48.06213915 -22.04278429 46.12472326 -21.5625 44.1875 C-21.29566406 43.10855469 -21.02882813 42.02960938 -20.75390625 40.91796875 C-20.23922588 38.9259157 -19.65062825 36.95188476 -19 35 C-17.906875 34.938125 -16.81375 34.87625 -15.6875 34.8125 C-11.9311334 34.40900538 -11.9311334 34.40900538 -10.38671875 31.8125 C-8.97874285 28.95688691 -8.01169389 26.24384752 -7.125 23.1875 C-6.79242188 22.0634375 -6.45984375 20.939375 -6.1171875 19.78125 C-5.74851562 18.5334375 -5.37984375 17.285625 -5 16 C-4.09362523 13.05925843 -3.17232482 10.12327235 -2.25 7.1875 C-1.81759534 5.80602495 -1.38529397 4.42451755 -0.953125 3.04296875 C-0.48132813 1.53669922 -0.48132813 1.53669922 0 0 Z " fill="#F6BC56" transform="translate(349,173)"/>
<path d="M0 0 C2.38468563 0.81464309 4.77017645 1.62693109 7.15625 2.4375 C11.90964559 4.07134097 16.64317657 5.75273543 21.36328125 7.48046875 C53.75731399 19.28397622 82.45918717 23.97843718 116.9375 22.5 C116.9375 27.45 116.9375 32.4 116.9375 37.5 C113.86600096 37.50219984 113.86600096 37.50219984 110.73245144 37.50444412 C62.09845365 37.53989481 13.46451511 37.59643312 -35.16942817 37.67792095 C-41.15860617 37.68793812 -47.14778443 37.6977823 -53.13696289 37.70751953 C-54.92542977 37.71043159 -54.92542977 37.71043159 -56.75002729 37.71340248 C-76.04247251 37.74440299 -95.33490583 37.7613977 -114.62737126 37.77319422 C-134.43094488 37.78561587 -154.23445622 37.8131402 -174.03799051 37.85461307 C-186.25266251 37.87971937 -198.46723118 37.89311937 -210.68192934 37.89142957 C-219.06396684 37.89139976 -227.44589929 37.90607206 -235.82789583 37.93216428 C-240.66008064 37.94677658 -245.49205002 37.95504207 -250.32425308 37.94580269 C-254.75696598 37.93747094 -259.1892474 37.94779258 -263.62189656 37.97233662 C-265.21702898 37.97798603 -266.81220277 37.97705845 -268.4073223 37.96851245 C-286.99258855 37.87755033 -301.85214101 42.08575517 -315.73828125 55.078125 C-326.93598595 66.7463215 -331.29464293 79.89603983 -331.4765625 95.78125 C-331.49592865 96.83534058 -331.5152948 97.88943115 -331.5352478 98.97546387 C-331.59466164 102.31689557 -331.64127562 105.65836244 -331.6875 109 C-331.72571494 111.27605605 -331.76476869 113.55209819 -331.8046875 115.828125 C-331.90189828 121.3853411 -331.98177067 126.94242267 -332.0625 132.5 C-342.9525 132.5 -353.8425 132.5 -365.0625 132.5 C-365.0625 96.2 -365.0625 59.9 -365.0625 22.5 C-337.1875 22.5 -337.1875 22.5 -328.57080078 22.5625 C-312.21471987 22.51163092 -298.34531868 20.07527831 -282.98374939 14.50692749 C-278.01805516 12.79529888 -272.95119308 11.46511273 -267.875 10.125 C-266.94427673 9.8759491 -266.01355347 9.62689819 -265.05462646 9.37030029 C-263.45237624 8.94233835 -261.84903935 8.51842362 -260.24462891 8.09863281 C-258.33579882 7.57497524 -256.45179022 6.96249551 -254.57421875 6.3359375 C-244.24049222 3.87607379 -236.67056593 6.71584411 -227.0625 10.75 C-225.8559375 11.24113281 -224.649375 11.73226563 -223.40625 12.23828125 C-213.75420123 16.17254026 -213.75420123 16.17254026 -210.41796875 17.75195312 C-196.94379449 23.9230814 -182.06957509 19.2767943 -168.21801758 16.49072266 C-149.11156082 12.68238483 -132.8474595 13.48297868 -113.75 17 C-88.12290331 21.67413865 -72.84331665 18.44751708 -49.1875 7.9375 C-47.42737706 7.16144285 -45.66696198 6.38604793 -43.90625 5.61132812 C-40.67931397 4.19087844 -37.45431202 2.76620129 -34.23095703 1.33764648 C-33.17138542 0.87302505 -33.17138542 0.87302505 -32.09040833 0.39901733 C-30.77542961 -0.18394228 -29.46636411 -0.78050239 -28.1648407 -1.39291382 C-18.56257695 -5.80982258 -9.48888639 -3.50852172 0 0 Z " fill="#F9AF4D" transform="translate(380.0625,364.5)"/>
<path d="M0 0 C8.04719122 7.50381175 14.85885208 17.52109485 18.8125 27.8125 C18.8125 28.8025 18.8125 29.7925 18.8125 30.8125 C17.91789063 30.89886719 17.02328125 30.98523438 16.1015625 31.07421875 C4.2891446 32.44687712 -5.08020965 35.8179311 -13.1875 44.8125 C-19.62206361 53.69219778 -21.44697734 62.03594656 -22.1875 72.8125 C-23.6725 72.85117188 -23.6725 72.85117188 -25.1875 72.890625 C-35.87304081 73.11277403 -35.87304081 73.11277403 -45.1875 77.8125 C-49.62828221 82.72308788 -51.4715562 87.00187137 -51.421875 93.74609375 C-51.07359977 96.81672035 -49.70379332 99.1589867 -48.1875 101.8125 C-48.1875 102.4725 -48.1875 103.1325 -48.1875 103.8125 C-47.011875 104.2765625 -47.011875 104.2765625 -45.8125 104.75 C-43.1875 105.8125 -43.1875 105.8125 -41.1875 106.8125 C-39.7380207 106.93017472 -38.28356004 106.98939268 -36.82958984 107.01782227 C-35.92880707 107.03776749 -35.02802429 107.05771271 -34.09994507 107.07826233 C-33.12594757 107.09497482 -32.15195007 107.11168732 -31.1484375 107.12890625 C-30.15244537 107.14968735 -29.15645325 107.17046844 -28.13027954 107.19187927 C-24.94109146 107.25739042 -21.75181942 107.31626704 -18.5625 107.375 C-16.40363707 107.41818373 -14.2447827 107.46179797 -12.0859375 107.50585938 C-6.7865477 107.61307336 -1.48707394 107.71483685 3.8125 107.8125 C-7.50486596 121.75947869 -25.44388305 130.53991852 -43.1875 132.8125 C-66.88403223 134.26284197 -86.50229982 128.40498053 -104.875 113.0625 C-118.5440172 100.33276428 -128.67280881 81.06356772 -129.4609375 62.18359375 C-129.54402455 57.71755019 -129.40890266 53.27267383 -129.1875 48.8125 C-129.15527344 47.9153125 -129.12304688 47.018125 -129.08984375 46.09375 C-127.83150748 28.28345197 -116.94661562 10.27143152 -103.71289062 -1.34863281 C-72.54045651 -27.43209721 -30.80808724 -25.91112275 0 0 Z " fill="#EE5229" transform="translate(144.1875,35.1875)"/>
<path d="M0 0 C1.15677611 1.11374506 2.30337691 2.23819577 3.4375 3.375 C6.40265828 6.06870013 8.33974115 6.30434585 12.3125 6.1875 C13.25480469 6.13722656 14.19710937 6.08695313 15.16796875 6.03515625 C24.55917623 5.91857574 32.55776665 10.81025594 39.19921875 17.07421875 C46.02086782 24.29936647 48.71194191 31.51948105 51 41 C51.59425781 41.01458252 52.18851563 41.02916504 52.80078125 41.04418945 C55.53445634 41.11938678 58.26700417 41.21580522 61 41.3125 C61.93457031 41.33505859 62.86914062 41.35761719 63.83203125 41.38085938 C71.57267244 41.67857634 78.65541926 42.91533571 84.61328125 48.3671875 C89.45699798 54.0704934 91.80269159 60.28275345 91.34765625 67.75 C90.40806002 73.83098235 87.24632775 77.01787089 82.71875 80.80078125 C78.95167694 83.42917086 75.32786222 83.130347 70.88407898 83.14044189 C69.79015035 83.14489858 69.79015035 83.14489858 68.67412215 83.1494453 C66.22373591 83.15813577 63.7733985 83.15964084 61.32299805 83.16113281 C59.56876521 83.16576074 57.81453339 83.17078536 56.06030273 83.17617798 C51.28956889 83.18930637 46.51884913 83.19574778 41.74810004 83.20018864 C38.76820482 83.20311862 35.78831346 83.20722329 32.80842018 83.21169281 C23.48696399 83.22536883 14.1655166 83.235035 4.84405106 83.2388947 C-5.91984067 83.24337601 -16.68360544 83.26092689 -27.44745857 83.2898953 C-35.76516872 83.31150422 -44.08284313 83.32159856 -52.40058106 83.32293582 C-57.36951874 83.3239844 -62.3383371 83.32990357 -67.30724525 83.34775543 C-71.98168557 83.36422247 -76.6559167 83.36639826 -81.33037567 83.35761642 C-83.0452372 83.35684532 -84.7601099 83.36119844 -86.47494316 83.37107468 C-88.81792078 83.38377631 -91.1601555 83.3779275 -93.50312805 83.36749268 C-94.81370839 83.36895924 -96.12428873 83.3704258 -97.47458363 83.3719368 C-102.94358662 82.79494865 -106.85191902 80.75343646 -110.3125 76.5 C-110.80363281 75.9121875 -111.29476563 75.324375 -111.80078125 74.71875 C-114.86734997 70.3236678 -114.62262953 65.11859389 -114 60 C-111.71287313 52.70043154 -107.75956756 47.61814105 -101 44 C-96.03551811 41.94523615 -91.41990581 41.590386 -86.125 41.375 C-84.949375 41.31699219 -84.949375 41.31699219 -83.75 41.2578125 C-81.83368633 41.16433378 -79.91687681 41.08111505 -78 41 C-77.86464844 39.79085937 -77.72929687 38.58171875 -77.58984375 37.3359375 C-75.8162905 23.22562886 -72.50441504 10.95561683 -61.5859375 0.96875 C-42.75096566 -13.37086602 -19.37285279 -14.08934748 0 0 Z " fill="#000101" transform="translate(410,30)"/>
<path d="M0 0 C7.51487334 4.24250075 14.79980231 8.75429125 22.02636719 13.46484375 C26.9742703 16.68995142 31.93730623 19.88890651 36.92529297 23.05175781 C38.77387998 24.23012174 40.61536226 25.41970278 42.44970703 26.62011719 C47.26608529 29.75030051 52.06602945 32.588136 57.22265625 35.125 C71.25452512 42.3055804 71.25452512 42.3055804 74.09326172 48.31396484 C75.59101598 54.36263309 75.22796084 60.52750918 75.046875 66.71191406 C74.86371376 75.76923737 75.62065914 84.84071314 76.1875 93.875 C76.2773819 95.38555969 76.2773819 95.38555969 76.36907959 96.92663574 C77.30322488 112.27273646 79.50166345 126.16635976 84.09033203 140.88623047 C86.08020304 147.69750658 87.46725368 154.67209554 88.95825195 161.60644531 C90.60179233 168.99914286 92.07960937 174.88391066 98.1875 179.8125 C99.47077957 180.8599336 100.74546773 181.91830115 102 183 C102 183.33 102 183.66 102 184 C82.98579661 184.67151493 66.05463863 184.77703686 48 178 C46.55260098 177.5024866 45.10342368 177.01011044 43.65234375 176.5234375 C34.36786077 173.36786077 34.36786077 173.36786077 33 172 C32.77675937 167.21202706 33.26834169 163.00823633 34.34765625 158.3515625 C34.62287109 157.09730469 34.89808594 155.84304688 35.18164062 154.55078125 C35.75642896 151.96824986 36.3513322 149.39256502 36.95507812 146.81640625 C39.08469392 136.96505414 38.97731144 128.00806515 38 118 C37.79045515 115.66468094 37.58249928 113.32921901 37.37573242 110.99365234 C36.70274801 103.49367103 35.98842592 95.99803234 35.26654053 88.50262451 C34.99456318 85.6665915 34.72696521 82.83015213 34.45935917 79.99370384 C34.19632077 77.21182284 33.93050614 74.43021211 33.663908 71.6486702 C33.47970606 69.7221689 33.29767867 67.79546006 33.11573792 65.8687439 C32.76457747 62.24330196 32.38921078 58.62154737 32 55 C31.93179424 54.33806892 31.86358849 53.67613785 31.79331589 52.99414825 C31.58009664 50.967701 31.34798491 48.94421187 31.11108398 46.92041016 C30.97645248 45.72276031 30.84182098 44.52511047 30.70310974 43.29116821 C29.43457522 37.35331777 25.89741701 33.49836604 22 29 C20.87626987 27.63474262 19.75678565 26.26598396 18.640625 24.89453125 C15.65411083 21.23235161 12.64340409 17.59115218 9.62402344 13.95605469 C7.44665961 11.33352929 5.27762803 8.7054063 3.125 6.0625 C2.50882812 5.31097656 1.89265625 4.55945313 1.2578125 3.78515625 C0 2 0 2 0 0 Z " fill="#FDD066" transform="translate(382,188)"/>
<path d="M0 0 C0.66894287 -0.00467285 1.33788574 -0.0093457 2.02709961 -0.01416016 C6.41748643 -0.00009014 10.55637829 0.41831645 14.875 1.125 C14.875 1.455 14.875 1.785 14.875 2.125 C13.6375 2.434375 12.4 2.74375 11.125 3.0625 C-6.02085519 8.80474396 -17.77966099 25.20848099 -25.91796875 40.4921875 C-34.83979317 58.86453704 -36.94780179 82.03553731 -30.5625 101.625 C-29.53088978 104.5161054 -28.38340356 107.32569413 -27.125 110.125 C-26.8470459 110.74777832 -26.5690918 111.37055664 -26.28271484 112.01220703 C-22.64511368 119.88621775 -17.86667449 126.65864815 -12.125 133.125 C-11.53332031 133.81078125 -10.94164063 134.4965625 -10.33203125 135.203125 C-6.32209519 139.5465099 -1.86283879 142.84740161 3.0625 146.0625 C3.95412842 146.64753296 3.95412842 146.64753296 4.86376953 147.24438477 C8.16743739 149.3222594 10.98489468 150.66346208 14.875 151.125 C14.875 151.455 14.875 151.785 14.875 152.125 C-4.90362667 156.05536812 -25.41056278 152.21008278 -42.3125 141.3125 C-60.33660944 128.70970473 -72.72187404 110.98341242 -76.84082031 89.16845703 C-77.7642722 82.52817155 -77.45633948 75.79985955 -77.125 69.125 C-77.09277344 68.2278125 -77.06054688 67.330625 -77.02734375 66.40625 C-75.76900748 48.59595197 -64.88411562 30.58393152 -51.65039062 18.96386719 C-36.33262201 6.14675862 -19.9328759 0.09610616 0 0 Z " fill="#E73224" transform="translate(92.125,14.875)"/>
<path d="M0 0 C4.69144677 2.81486806 8.19305709 5.86369291 11.1953125 10.45703125 C12.85766177 12.4734369 13.65991181 13.18136663 16.25561523 13.66796875 C18.83277128 13.67623466 21.35357113 13.54167786 23.921875 13.328125 C31.50909799 12.72273137 36.10594811 13.35013234 42.109375 18.265625 C46.75193618 22.80501815 48.35337759 27.2069205 50.109375 33.265625 C51.9164487 39.45180368 53.70352495 42.58964696 59.109375 46.265625 C62.6233718 47.91795192 65.39809018 48.5125335 69.26953125 48.5390625 C70.22794922 48.5596875 71.18636719 48.5803125 72.17382812 48.6015625 C74.17634529 48.62765393 76.17898048 48.64585332 78.18164062 48.65625 C85.49414823 48.83352291 85.49414823 48.83352291 88.7734375 51.13671875 C90.40105539 53.73043732 90.51608062 55.25600339 90.109375 58.265625 C88.23024986 60.14475014 85.00371682 59.39185995 82.50402832 59.39260864 C81.80559201 59.39416863 81.10715569 59.39572862 80.38755465 59.39733589 C78.02983314 59.40134816 75.67217519 59.39815538 73.31445312 59.39501953 C71.63122011 59.39637347 69.9479874 59.39815336 68.26475525 59.40032959 C63.68017545 59.40490478 59.09561804 59.40311401 54.51103783 59.3999505 C49.72419548 59.39742734 44.93735511 59.39976432 40.1505127 59.40133667 C32.11026666 59.4031585 24.0700298 59.40075172 16.02978516 59.39599609 C6.72021452 59.39055345 -2.58933422 59.3923161 -11.89890432 59.3978225 C-19.8767953 59.40235326 -27.85467966 59.40300436 -35.83257151 59.40038383 C-40.60403712 59.39882085 -45.37549243 59.39862785 -50.1469574 59.40192032 C-54.63170337 59.4047985 -59.11642097 59.40282432 -63.60116386 59.39702606 C-65.25200287 59.39569818 -66.90284425 59.39609306 -68.55368233 59.39828873 C-70.79758044 59.40099913 -73.04138618 59.39762048 -75.28527832 59.39260864 C-77.17346661 59.3920431 -77.17346661 59.3920431 -79.09980011 59.39146614 C-81.890625 59.265625 -81.890625 59.265625 -82.890625 58.265625 C-82.640625 54.828125 -82.640625 54.828125 -81.890625 51.265625 C-78.82734886 49.22344091 -78.17691466 49.02042291 -74.72265625 48.9921875 C-73.91119141 48.9715625 -73.09972656 48.9509375 -72.26367188 48.9296875 C-70.57626976 48.90394529 -68.88873742 48.88553905 -67.20117188 48.875 C-61.35897641 48.70926396 -56.74437888 47.65099212 -51.890625 44.265625 C-47.3985243 38.73688568 -46.8670359 34.69671469 -46.703125 27.765625 C-46.02051212 17.9645266 -42.64597487 10.45333796 -35.453125 3.703125 C-25.76759908 -4.59110991 -11.37786753 -5.42166842 0 0 Z " fill="#C6E8F9" transform="translate(394.890625,38.734375)"/>
<path d="M0 0 C3.65668052 1.97643012 5.54308318 3.91128454 7.875 7.3125 C9.43040383 9.51810715 9.43040383 9.51810715 11.75 11 C15.19773291 11.31243944 18.38568006 11.25818974 21.82763672 11.07128906 C26.99160234 10.83727614 30.19148893 11.25230189 34.2734375 14.453125 C37.87543381 18.22664494 39.61342064 21.99207132 40.6875 27.0625 C41.67521671 31.52455355 43.47994527 33.80599305 46.75 37 C51.93043805 39.80727648 57.59200416 39.38269641 63.33203125 39.47851562 C64.11191406 39.50494141 64.89179688 39.53136719 65.6953125 39.55859375 C66.40187988 39.57204834 67.10844727 39.58550293 67.83642578 39.59936523 C70.29597204 40.11430724 71.22099302 41.04067907 72.75 43 C72.75 43.66 72.75 44.32 72.75 45 C27.54 45 -17.67 45 -64.25 45 C-63.92 43.68 -63.59 42.36 -63.25 41 C-59.32477625 39.03738813 -54.37442693 39.63905951 -50.046875 39.4765625 C-44.80246975 38.8183141 -41.48146125 37.3645922 -37.9375 33.4375 C-35.3251084 29.66404546 -35.15089398 27.56993211 -35 23 C-34.44926063 15.56090853 -32.78497811 9.43499893 -27.31640625 4.12109375 C-19.03317488 -2.37709343 -9.87316688 -4.47684055 0 0 Z " fill="#C5E7F8" transform="translate(171.25,83)"/>
<path d="M0 0 C3.12291165 1.68012647 5.39164837 3.78329674 7 7 C7.09288682 9.50236916 7.12582412 11.97662686 7.11352539 14.47900391 C7.11367142 15.24982803 7.11381744 16.02065216 7.1139679 16.81483459 C7.11326989 19.36877229 7.10548275 21.92263751 7.09765625 24.4765625 C7.09579167 26.24490316 7.09436796 28.01324433 7.09336853 29.78158569 C7.0895465 34.44064759 7.07971888 39.09967842 7.06866455 43.75872803 C7.05844369 48.51102274 7.05386946 53.26332247 7.04882812 58.015625 C7.03809634 67.34376367 7.02102367 76.67187925 7 86 C3.56336386 86.67117267 0.12555959 87.33616071 -3.3125 88 C-4.28896484 88.19078125 -5.26542969 88.3815625 -6.27148438 88.578125 C-7.20927734 88.75859375 -8.14707031 88.9390625 -9.11328125 89.125 C-9.97735596 89.29257812 -10.84143066 89.46015625 -11.73168945 89.6328125 C-14 90 -14 90 -17 90 C-17.09274882 79.41222759 -17.16378987 68.8245521 -17.20724869 58.23645592 C-17.22810857 53.31976327 -17.25639707 48.4033489 -17.30175781 43.48681641 C-17.34527251 38.74057918 -17.36914914 33.99460936 -17.37950897 29.24818802 C-17.38689024 27.43889787 -17.40130427 25.62962209 -17.42292023 23.82044601 C-17.45202938 21.28280963 -17.45595293 18.74627303 -17.45410156 16.20849609 C-17.46848267 15.46330719 -17.48286377 14.71811829 -17.49768066 13.9503479 C-17.45732433 8.82598053 -16.24961016 5.93117857 -13 2 C-8.7581081 -0.82792793 -4.98126257 -0.78122286 0 0 Z " fill="#02A24B" transform="translate(215,279)"/>
<path d="M0 0 C0.66 0 1.32 0 2 0 C3.73082971 2.02771302 5.34408286 4.05604591 6.9375 6.1875 C7.60168945 7.0547168 7.60168945 7.0547168 8.27929688 7.93945312 C10.73931216 11.18403364 12.97835297 14.45711362 15 18 C14.34 18 13.68 18 13 18 C12.88011719 18.99644531 12.76023437 19.99289063 12.63671875 21.01953125 C12.06209036 25.01986749 10.99534781 28.82954678 9.8125 32.6875 C9.59327881 33.41735107 9.37405762 34.14720215 9.14819336 34.89916992 C8.67838349 36.46173741 8.20640174 38.02365329 7.73242188 39.58496094 C6.99832537 42.00552181 6.27147273 44.42814248 5.546875 46.8515625 C4.5419926 50.21182532 3.53406743 53.57114881 2.5234375 56.9296875 C1.5446922 60.1834884 0.57051801 63.43858333 -0.3984375 66.6953125 C-4.80980532 81.5015116 -9.40204701 96.25092168 -14 111 C-19.17014115 107.16474663 -24.1545167 103.23979789 -29 99 C-27.50430943 89.83437604 -24.60874622 81.15141363 -21.65991211 72.36889648 C-21.02704 70.47554013 -20.41368833 68.57569449 -19.80078125 66.67578125 C-19.43122314 65.56114502 -19.06166504 64.44650879 -18.6809082 63.2980957 C-17.89913738 59.5114546 -18.13113176 56.75441487 -19 53 C-20.91738855 51.03712176 -20.91738855 51.03712176 -23 50 C-22.52229477 48.06213915 -22.04278429 46.12472326 -21.5625 44.1875 C-21.29566406 43.10855469 -21.02882813 42.02960938 -20.75390625 40.91796875 C-20.23922588 38.9259157 -19.65062825 36.95188476 -19 35 C-17.906875 34.938125 -16.81375 34.87625 -15.6875 34.8125 C-11.9311334 34.40900538 -11.9311334 34.40900538 -10.38671875 31.8125 C-8.97874285 28.95688691 -8.01169389 26.24384752 -7.125 23.1875 C-6.79242188 22.0634375 -6.45984375 20.939375 -6.1171875 19.78125 C-5.74851562 18.5334375 -5.37984375 17.285625 -5 16 C-4.09362523 13.05925843 -3.17232482 10.12327235 -2.25 7.1875 C-1.81759534 5.80602495 -1.38529397 4.42451755 -0.953125 3.04296875 C-0.63859375 2.03878906 -0.3240625 1.03460938 0 0 Z " fill="#EEA735" transform="translate(349,173)"/>
<path d="M0 0 C2.0625 1.453125 2.0625 1.453125 4 3.25 C4.639375 3.83265625 5.27875 4.4153125 5.9375 5.015625 C8.32419707 7.31191688 10.66052571 9.65570801 13 12 C12.07775635 12.37286133 11.1555127 12.74572266 10.20532227 13.12988281 C6.74375671 14.52986426 3.28301788 15.93187969 -0.17749023 17.33447266 C-1.66782961 17.93820741 -3.15838482 18.54140967 -4.64916992 19.14404297 C-5.37015869 19.43553223 -6.09114746 19.72702148 -6.83398438 20.02734375 C-7.54622665 20.31475433 -8.25846893 20.60216492 -8.99229431 20.89828491 C-10.41042716 21.476077 -11.82532305 22.06187903 -13.23683167 22.65567017 C-16.09610224 23.85618869 -18.82243962 24.95302895 -21.82592773 25.74755859 C-24.48105606 26.50951595 -25.95196287 27.12795095 -28 29 C-30.75166295 34.1623701 -32.45285151 39.55529374 -34.1875 45.125 C-34.69774502 46.67479822 -35.21118166 48.22354925 -35.7277832 49.77124023 C-36.96829263 53.50948917 -38.17263648 57.25810342 -39.36474609 61.01202393 C-40.5145498 64.61024228 -41.71832332 68.19024044 -42.92114258 71.77099609 C-43.41814308 73.25708933 -43.90801358 74.74559355 -44.3894043 76.23681641 C-45.89736949 80.89736949 -45.89736949 80.89736949 -47 82 C-49.08607309 81.93517852 -51.17006513 81.79755065 -53.25 81.625 C-54.38953125 81.53476562 -55.5290625 81.44453125 -56.703125 81.3515625 C-59.52748261 81.05038693 -62.22978229 80.61444679 -65 80 C-64.29053367 74.1748117 -62.41037193 68.83360025 -60.54296875 63.30078125 C-60.02661613 61.75453316 -60.02661613 61.75453316 -59.49983215 60.17704773 C-58.77144376 57.99859287 -58.04090063 55.82085744 -57.30834961 53.64379883 C-56.19770556 50.34283215 -55.09336757 47.03981145 -53.99023438 43.73632812 C-53.27901682 41.61185493 -52.56743963 39.4875021 -51.85546875 37.36328125 C-51.52927048 36.38893631 -51.2030722 35.41459137 -50.86698914 34.41072083 C-50.23475426 32.53318976 -49.59262208 30.65895797 -48.93989563 28.78845215 C-48.29489481 26.87488446 -47.70311273 24.94280032 -47.15715027 22.99865723 C-44.68144131 14.80626947 -44.68144131 14.80626947 -40.28881836 12.39013672 C-38.82229416 11.77887458 -37.33753574 11.21002072 -35.83984375 10.6796875 C-34.66041954 10.20718063 -34.66041954 10.20718063 -33.45716858 9.72512817 C-30.9637514 8.73640064 -28.45309301 7.80564633 -25.9375 6.875 C-24.24529418 6.2146428 -22.55451727 5.55061149 -20.86523438 4.8828125 C-4.78591579 -1.42993826 -4.78591579 -1.42993826 0 0 Z " fill="#EDA635" transform="translate(312,284)"/>
<path d="M0 0 C4.01634401 2.30606837 8.01260981 4.64423155 12 7 C13.05960937 7.62132812 14.11921875 8.24265625 15.2109375 8.8828125 C16.68433594 9.77613281 16.68433594 9.77613281 18.1875 10.6875 C19.08855469 11.22761719 19.98960937 11.76773438 20.91796875 12.32421875 C23.37025712 14.29801183 23.2840949 15.06046066 24 18 C25.63539094 20.28207453 27.2922289 22.45315062 29.0625 24.625 C29.51560547 25.19089844 29.96871094 25.75679687 30.43554688 26.33984375 C30.90154297 26.92121094 31.36753906 27.50257813 31.84765625 28.1015625 C32.3139444 28.69841858 32.78023254 29.29527466 33.26065063 29.91021729 C34.96170131 32.03420298 34.96170131 32.03420298 36.95993042 33.87469482 C44.76463518 41.95567743 44.86518804 51.07513023 45.78515625 61.7265625 C45.97513507 63.64394257 46.16792807 65.56104568 46.36338806 67.47787476 C46.7644064 71.47867766 47.14313371 75.48069964 47.50366211 79.48535156 C47.96458692 84.60373705 48.46318993 89.71750083 48.97626591 94.83089638 C49.4667149 99.73242277 49.93950998 104.63560112 50.41015625 109.5390625 C50.50035601 110.46593494 50.59055576 111.39280739 50.68348885 112.34776688 C50.9367221 114.98578062 51.17752156 117.62462511 51.41430664 120.26416016 C51.52708199 121.41772255 51.52708199 121.41772255 51.64213562 122.59458923 C52.21829857 129.27988137 51.40453538 135.45529281 50.02734375 142.0234375 C49.85009766 142.9 49.67285156 143.7765625 49.49023438 144.6796875 C49.12312302 146.46984183 48.75076368 148.25892833 48.37304688 150.046875 C46.43494215 159.73029935 45.73577947 167.37428926 51 176 C51.33 176.66 51.66 177.32 52 178 C46.19556907 177.48405058 37.24367342 176.24367342 33 172 C32.77675937 167.21202706 33.26834169 163.00823633 34.34765625 158.3515625 C34.62287109 157.09730469 34.89808594 155.84304688 35.18164062 154.55078125 C35.75642896 151.96824986 36.3513322 149.39256502 36.95507812 146.81640625 C39.08469392 136.96505414 38.97731144 128.00806515 38 118 C37.79045515 115.66468094 37.58249928 113.32921901 37.37573242 110.99365234 C36.70274801 103.49367103 35.98842592 95.99803234 35.26654053 88.50262451 C34.99456318 85.6665915 34.72696521 82.83015213 34.45935917 79.99370384 C34.19632077 77.21182284 33.93050614 74.43021211 33.663908 71.6486702 C33.47970606 69.7221689 33.29767867 67.79546006 33.11573792 65.8687439 C32.76457747 62.24330196 32.38921078 58.62154737 32 55 C31.93179424 54.33806892 31.86358849 53.67613785 31.79331589 52.99414825 C31.58009664 50.967701 31.34798491 48.94421187 31.11108398 46.92041016 C30.97645248 45.72276031 30.84182098 44.52511047 30.70310974 43.29116821 C29.43457522 37.35331777 25.89741701 33.49836604 22 29 C20.87626987 27.63474262 19.75678565 26.26598396 18.640625 24.89453125 C15.65411083 21.23235161 12.64340409 17.59115218 9.62402344 13.95605469 C7.44665961 11.33352929 5.27762803 8.7054063 3.125 6.0625 C2.50882812 5.31097656 1.89265625 4.55945313 1.2578125 3.78515625 C0 2 0 2 0 0 Z " fill="#F2C051" transform="translate(382,188)"/>
<path d="M0 0 C4.91782784 3.19793177 8.22252086 7.30998603 10.58203125 12.64453125 C12.24586326 23.73674463 10.83820389 35.24622093 10.14453125 46.39453125 C3.87688606 48.62899351 -2.30153242 50.23151541 -8.85546875 51.39453125 C-8.99082031 50.78867187 -9.12617187 50.1828125 -9.265625 49.55859375 C-11.46322404 41.00506457 -15.34560977 33.34122552 -22.91796875 28.39453125 C-26.10670944 26.63544038 -29.33644448 25.36226292 -32.85546875 24.39453125 C-33.51303617 16.57678522 -33.05828938 10.55419246 -27.85546875 4.39453125 C-19.23754647 -2.77449341 -10.34369751 -5.12656111 0 0 Z " fill="#47B564" transform="translate(89.85546875,316.60546875)"/>
<path d="M0 0 C1.72265625 1.0703125 1.72265625 1.0703125 2.72265625 3.0703125 C2.05621094 3.13347656 1.38976562 3.19664063 0.703125 3.26171875 C-9.68630123 4.64213202 -18.20710763 9.56437977 -24.77734375 17.79296875 C-30.03649888 25.77757147 -31.83225075 33.34722183 -31.94140625 42.84375 C-32.33016638 46.57765539 -33.26487699 48.9104665 -35.27734375 52.0703125 C-38.11840166 53.85004262 -40.35945786 54.33117347 -43.68359375 54.4140625 C-44.92302734 54.45853516 -44.92302734 54.45853516 -46.1875 54.50390625 C-47.9140625 54.54817708 -49.640625 54.59244792 -51.3671875 54.63671875 C-52.19347656 54.66636719 -53.01976562 54.69601563 -53.87109375 54.7265625 C-54.62068359 54.74525391 -55.37027344 54.76394531 -56.14257812 54.78320312 C-58.69495149 55.00911394 -58.69495149 55.00911394 -62.27734375 57.0703125 C12.46765625 57.5653125 12.46765625 57.5653125 88.72265625 58.0703125 C88.72265625 58.4003125 88.72265625 58.7303125 88.72265625 59.0703125 C66.44429814 59.09363919 44.16594203 59.11129054 21.8875742 59.12212467 C11.54410456 59.12728812 1.20064251 59.13433174 -9.14282227 59.14575195 C-18.15475487 59.15569731 -27.16668199 59.16216557 -36.17861992 59.16440099 C-40.95345714 59.16570836 -45.72827868 59.1687958 -50.50311089 59.17604256 C-54.99194288 59.18280043 -59.48075264 59.18492994 -63.96958923 59.18342018 C-65.62204166 59.18369661 -67.27449478 59.18570311 -68.92694283 59.18951797 C-71.17307906 59.1944516 -73.41912996 59.19331203 -75.66526794 59.19056702 C-76.92535895 59.19148881 -78.18544996 59.1924106 -79.48372555 59.19336033 C-82.27734375 59.0703125 -82.27734375 59.0703125 -83.27734375 58.0703125 C-83.02734375 54.6328125 -83.02734375 54.6328125 -82.27734375 51.0703125 C-79.21406761 49.02812841 -78.56363341 48.82511041 -75.109375 48.796875 C-74.29791016 48.77625 -73.48644531 48.755625 -72.65039062 48.734375 C-70.96298851 48.70863279 -69.27545617 48.69022655 -67.58789062 48.6796875 C-61.74569516 48.51395146 -57.13109763 47.45567962 -52.27734375 44.0703125 C-47.78524305 38.54157318 -47.25375465 34.50140219 -47.08984375 27.5703125 C-46.40723087 17.7692141 -43.03269362 10.25802546 -35.83984375 3.5078125 C-25.78114459 -5.10599065 -11.72812123 -5.28646533 0 0 Z " fill="#8EC7DD" transform="translate(395.27734375,38.9296875)"/>
<path d="M0 0 C3.22902895 1.72042662 4.35533616 2.56425424 6.4375 5.6875 C5.1071875 6.2753125 5.1071875 6.2753125 3.75 6.875 C-3.41588297 10.79595483 -7.50366512 17.15806326 -10.8125 24.4375 C-11.76817608 28.57876303 -11.90469115 32.64032909 -12.0234375 36.8828125 C-12.70664674 40.43748088 -13.62878918 41.59199227 -16.5625 43.6875 C-19.328125 44.296875 -19.328125 44.296875 -22.8125 44.4375 C-23.78896484 44.48088501 -23.78896484 44.48088501 -24.78515625 44.52514648 C-38.02531395 45.00194288 -51.31585699 44.76583259 -64.5625 44.6875 C-64.1875 42.75 -64.1875 42.75 -63.5625 40.6875 C-59.63727625 38.72488813 -54.68692693 39.32655951 -50.359375 39.1640625 C-45.11496975 38.5058141 -41.79396125 37.0520922 -38.25 33.125 C-35.6376084 29.35154546 -35.46339398 27.25743211 -35.3125 22.6875 C-34.76176063 15.24840853 -33.09747811 9.12249893 -27.62890625 3.80859375 C-19.15282147 -2.84088675 -9.97019618 -4.79725381 0 0 Z " fill="#92D1E8" transform="translate(171.5625,83.3125)"/>
<path d="M0 0 C3.8898718 2.13561589 6.66517341 4.22642413 9 8 C9.36076355 10.37921143 9.36076355 10.37921143 9.34057617 13.04394531 C9.34034958 14.04468079 9.34012299 15.04541626 9.33988953 16.07647705 C9.32440567 17.14952087 9.30892181 18.2225647 9.29296875 19.328125 C9.28872391 20.43226746 9.28447906 21.53640991 9.28010559 22.67401123 C9.26331668 26.19958916 9.22566309 29.72459491 9.1875 33.25 C9.17245348 35.64061674 9.15876502 38.03124245 9.14648438 40.421875 C9.11341243 46.28144513 9.06321046 52.14068169 9 58 C5.57144781 57.34936331 2.56637691 56.52844725 -0.64453125 55.15234375 C-1.40354736 54.82999756 -2.16256348 54.50765137 -2.94458008 54.17553711 C-3.89099365 53.76698486 -4.83740723 53.35843262 -5.8125 52.9375 C-7.45127632 52.23478154 -9.09020199 51.53241133 -10.72924805 50.83032227 C-12.15283203 50.22021484 -13.57641602 49.61010742 -15 49 C-15.14886633 43.28925873 -15.2574597 37.57965854 -15.32958984 31.86743164 C-15.35967215 29.92647618 -15.40054963 27.98565564 -15.45263672 26.04516602 C-15.52583255 23.24721935 -15.55954101 20.45107664 -15.5859375 17.65234375 C-15.61690521 16.7916478 -15.64787292 15.93095184 -15.67977905 15.04417419 C-15.68291182 9.37347924 -14.47214271 6.43413497 -10.58486938 2.28956604 C-7.34015868 -0.35056871 -4.00772602 -0.39291432 0 0 Z " fill="#93C859" transform="translate(173,313)"/>
<path d="M0 0 C3.30000087 0.27500007 4.72570079 0.73612204 7.14349365 3.0620575 C9.45373594 6.71804231 9.5376179 9.63402562 9.45410156 13.81958008 C9.45468567 14.59084229 9.45526978 15.36210449 9.45587158 16.15673828 C9.45309466 18.69480085 9.4220227 21.23167499 9.390625 23.76953125 C9.38316118 25.53357807 9.37746891 27.2976332 9.37347412 29.06169128 C9.35822882 33.69626914 9.31895668 38.3303426 9.2746582 42.96472168 C9.23368159 47.69711484 9.21545801 52.4295898 9.1953125 57.16210938 C9.15246123 66.44162741 9.08422337 75.7207717 9 85 C5.32589215 86.17571451 1.83070817 86.07366746 -2 86 C-2.04632306 75.37762933 -2.08186908 64.75528265 -2.10362434 54.13283157 C-2.11406532 49.20049728 -2.1282303 44.26823205 -2.15087891 39.3359375 C-2.17259601 34.5767626 -2.18456626 29.81765416 -2.18975449 25.05843353 C-2.19345227 23.24194034 -2.20067303 21.42545082 -2.21146011 19.6089859 C-2.22595996 17.06639214 -2.22797857 14.52407371 -2.22705078 11.98144531 C-2.23424133 11.22906586 -2.24143188 10.4766864 -2.24884033 9.70150757 C-2.2341056 5.97426681 -2.07760692 3.16371495 0 0 Z " fill="#47B665" transform="translate(213,280)"/>
<path d="M0 0 C0.7734375 -0.01417969 1.546875 -0.02835937 2.34375 -0.04296875 C4.5 0.1875 4.5 0.1875 7.5 2.1875 C6.901875 2.8475 6.30375 3.5075 5.6875 4.1875 C-0.01625829 12.00979709 -0.0141118 19.80472156 -0.1875 29.1875 C-0.22166016 30.43917969 -0.25582031 31.69085938 -0.29101562 32.98046875 C-0.37300969 36.04938957 -0.44232019 39.11804206 -0.5 42.1875 C-2.99491895 39.70913109 -5.4560325 37.23622074 -7.8125 34.625 C-11.84843039 30.96450499 -16.35942151 28.90102616 -21.5 27.1875 C-22.15756742 19.36975397 -21.70282063 13.34716121 -16.5 7.1875 C-11.44314226 2.980832 -6.69119146 0.05575993 0 0 Z " fill="#01A04A" transform="translate(78.5,313.8125)"/>
<path d="M0 0 C0.66 0.66 1.32 1.32 2 2 C1.525625 2.433125 1.05125 2.86625 0.5625 3.3125 C-2.02637028 6.1084799 -2.13395778 8.83184673 -2.20532227 12.47143555 C-2.22526749 13.37214279 -2.24521271 14.27285004 -2.26576233 15.20085144 C-2.29083107 16.65410576 -2.29083107 16.65410576 -2.31640625 18.13671875 C-2.33718735 19.13129593 -2.35796844 20.12587311 -2.37937927 21.15058899 C-2.44479412 24.32948867 -2.5037224 27.50847134 -2.5625 30.6875 C-2.60569288 32.84180548 -2.64930742 34.99610254 -2.69335938 37.15039062 C-2.80046726 42.43350588 -2.90224873 47.71670379 -3 53 C-7.38889325 52.33501617 -10.9811485 50.81242323 -15 49 C-15.14886633 43.28925873 -15.2574597 37.57965854 -15.32958984 31.86743164 C-15.35967215 29.92647618 -15.40054963 27.98565564 -15.45263672 26.04516602 C-15.52583255 23.24721935 -15.55954101 20.45107664 -15.5859375 17.65234375 C-15.61690521 16.7916478 -15.64787292 15.93095184 -15.67977905 15.04417419 C-15.68291182 9.37347924 -14.47214271 6.43413497 -10.58486938 2.28956604 C-7.33932672 -0.35124565 -4.00831969 -0.25585019 0 0 Z " fill="#69A642" transform="translate(173,313)"/>
<path d="M0 0 C5.00230198 2.45567552 8.49851535 5.9970307 11 11 C11 12.98 11 14.96 11 17 C0.11 17 -10.78 17 -22 17 C-22 10.74313815 -21.71263509 9.61570849 -18 5 C-12.09652224 -0.20068279 -7.76521275 -0.7907996 0 0 Z " fill="#69A642" transform="translate(55,355)"/>
<path d="M0 0 C3 2 3 2 3.43359375 3.91796875 C3.44681514 11.59959375 1.11106693 15.94476312 -4.125 21.4375 C-7 24 -7 24 -9 24 C-10.65625 22.390625 -10.65625 22.390625 -12.5 20.25 C-13.1084375 19.55390625 -13.716875 18.8578125 -14.34375 18.140625 C-15.87976963 16.15539208 -16.9723966 14.28127955 -18 12 C-8.96797153 -1.19572954 -8.96797153 -1.19572954 0 0 Z " fill="#90C458" transform="translate(118,292)"/>
<path d="M0 0 C5.00556022 2.44530499 8.46141098 6.0285965 11 11 C11.125 13.0625 11.125 13.0625 10 15 C8.03814584 16.71140469 6.03697617 18.37873325 4 20 C3.34 20.99 2.68 21.98 2 23 C-1.35934832 21.56875447 -3.31792827 19.82271696 -5.6875 17.0625 C-6.28949219 16.37285156 -6.89148437 15.68320312 -7.51171875 14.97265625 C-10.37357165 11.17938665 -10.32929051 7.6100671 -10 3 C-7.76662109 -1.07263213 -4.2166994 -0.56222659 0 0 Z " fill="#91C559" transform="translate(47,292)"/>
<path d="M0 0 C3.1793909 0.07569978 5.30889688 0.36768037 7.69921875 2.5546875 C11.89621191 7.45287322 13 9.15635038 13 16 C7.06 16 1.12 16 -5 16 C-5 7 -5 7 -2.5 3.5 C-2.0359375 2.8296875 -1.571875 2.159375 -1.09375 1.46875 C-0.7328125 0.9840625 -0.371875 0.499375 0 0 Z " fill="#93C85A" transform="translate(53,356)"/>
</svg>
